<svg xmlns="http://www.w3.org/2000/svg" width="1200" height="700">
<rect width="100%" height="100%" fill="white"/>
<style>text{font-family:Arial,sans-serif;fill:#202020}</style>
<text x="72" y="23" font-size="17">Transition event timing from each profile rise onset</text>
<line x1="270" y1="652" x2="1176" y2="652" stroke="#444"/>
<line x1="270.0" y1="36" x2="270.0" y2="652" stroke="#dddddd"/>
<text x="270.0" y="670" text-anchor="middle" font-size="12">0s</text>
<line x1="451.2" y1="36" x2="451.2" y2="652" stroke="#dddddd"/>
<text x="451.2" y="670" text-anchor="middle" font-size="12">2s</text>
<line x1="632.4" y1="36" x2="632.4" y2="652" stroke="#dddddd"/>
<text x="632.4" y="670" text-anchor="middle" font-size="12">4s</text>
<line x1="813.6" y1="36" x2="813.6" y2="652" stroke="#dddddd"/>
<text x="813.6" y="670" text-anchor="middle" font-size="12">6s</text>
<line x1="994.8" y1="36" x2="994.8" y2="652" stroke="#dddddd"/>
<text x="994.8" y="670" text-anchor="middle" font-size="12">8s</text>
<line x1="1176.0" y1="36" x2="1176.0" y2="652" stroke="#dddddd"/>
<text x="1176.0" y="670" text-anchor="middle" font-size="12">10s</text>
<text x="260" y="57.1" text-anchor="end" font-size="11">steps 130149 0-&gt;1</text>
<circle cx="270.0" cy="53.1" r="4" fill="#202020"/>
<circle cx="1031.6" cy="53.1" r="4" fill="#1565c0"/>
<circle cx="1031.6" cy="53.1" r="4" fill="#ef6c00"/>
<text x="260" y="91.3" text-anchor="end" font-size="11">steps 130149 1-&gt;2</text>
<circle cx="270.0" cy="87.3" r="4" fill="#202020"/>
<circle cx="346.1" cy="87.3" r="4" fill="#1565c0"/>
<circle cx="346.1" cy="87.3" r="4" fill="#ef6c00"/>
<text x="260" y="125.6" text-anchor="end" font-size="11">steps 130149 2-&gt;3</text>
<circle cx="270.0" cy="121.6" r="4" fill="#202020"/>
<circle cx="270.0" cy="121.6" r="4" fill="#1565c0"/>
<circle cx="270.0" cy="121.6" r="4" fill="#ef6c00"/>
<text x="260" y="159.8" text-anchor="end" font-size="11">steps 130415 0-&gt;1</text>
<circle cx="270.2" cy="155.8" r="4" fill="#202020"/>
<circle cx="1032.1" cy="155.8" r="4" fill="#1565c0"/>
<circle cx="1032.1" cy="155.8" r="4" fill="#ef6c00"/>
<text x="260" y="194.0" text-anchor="end" font-size="11">steps 130415 1-&gt;2</text>
<circle cx="270.0" cy="190.0" r="4" fill="#202020"/>
<circle cx="344.1" cy="190.0" r="4" fill="#1565c0"/>
<circle cx="344.1" cy="190.0" r="4" fill="#ef6c00"/>
<text x="260" y="228.2" text-anchor="end" font-size="11">steps 130415 2-&gt;3</text>
<circle cx="270.0" cy="224.2" r="4" fill="#202020"/>
<circle cx="270.0" cy="224.2" r="4" fill="#1565c0"/>
<circle cx="270.0" cy="224.2" r="4" fill="#ef6c00"/>
<text x="260" y="262.4" text-anchor="end" font-size="11">steps 130640 0-&gt;1</text>
<circle cx="807.4" cy="258.4" r="4" fill="#202020"/>
<circle cx="1045.2" cy="258.4" r="4" fill="#1565c0"/>
<circle cx="1045.2" cy="258.4" r="4" fill="#ef6c00"/>
<text x="260" y="296.7" text-anchor="end" font-size="11">steps 130640 1-&gt;2</text>
<circle cx="270.0" cy="292.7" r="4" fill="#202020"/>
<circle cx="349.5" cy="292.7" r="4" fill="#1565c0"/>
<circle cx="349.5" cy="292.7" r="4" fill="#ef6c00"/>
<text x="260" y="330.9" text-anchor="end" font-size="11">steps 130640 2-&gt;3</text>
<circle cx="270.0" cy="326.9" r="4" fill="#202020"/>
<circle cx="270.0" cy="326.9" r="4" fill="#1565c0"/>
<circle cx="270.0" cy="326.9" r="4" fill="#ef6c00"/>
<text x="260" y="365.1" text-anchor="end" font-size="11">varying 130859 0.6-&gt;1.4</text>
<circle cx="397.2" cy="361.1" r="4" fill="#202020"/>
<circle cx="710.0" cy="361.1" r="4" fill="#1565c0"/>
<circle cx="710.0" cy="361.1" r="4" fill="#ef6c00"/>
<text x="260" y="399.3" text-anchor="end" font-size="11">varying 130859 1.4-&gt;2.3</text>
<circle cx="270.0" cy="395.3" r="4" fill="#202020"/>
<circle cx="270.0" cy="395.3" r="4" fill="#1565c0"/>
<circle cx="270.0" cy="395.3" r="4" fill="#ef6c00"/>
<text x="260" y="433.6" text-anchor="end" font-size="11">varying 130859 2.3-&gt;2.8</text>
<circle cx="270.0" cy="429.6" r="4" fill="#202020"/>
<circle cx="270.0" cy="429.6" r="4" fill="#1565c0"/>
<circle cx="270.0" cy="429.6" r="4" fill="#ef6c00"/>
<text x="260" y="467.8" text-anchor="end" font-size="11">varying 131059 0.6-&gt;1.4</text>
<circle cx="325.4" cy="463.8" r="4" fill="#202020"/>
<circle cx="657.4" cy="463.8" r="4" fill="#1565c0"/>
<circle cx="657.4" cy="463.8" r="4" fill="#ef6c00"/>
<text x="260" y="502.0" text-anchor="end" font-size="11">varying 131059 1.4-&gt;2.3</text>
<circle cx="270.2" cy="498.0" r="4" fill="#202020"/>
<circle cx="270.2" cy="498.0" r="4" fill="#1565c0"/>
<circle cx="270.2" cy="498.0" r="4" fill="#ef6c00"/>
<text x="260" y="536.2" text-anchor="end" font-size="11">varying 131059 2.3-&gt;2.8</text>
<circle cx="270.0" cy="532.2" r="4" fill="#202020"/>
<circle cx="270.0" cy="532.2" r="4" fill="#1565c0"/>
<circle cx="270.0" cy="532.2" r="4" fill="#ef6c00"/>
<text x="260" y="570.4" text-anchor="end" font-size="11">varying 131301 0.6-&gt;1.4</text>
<circle cx="270.2" cy="566.4" r="4" fill="#202020"/>
<circle cx="594.3" cy="566.4" r="4" fill="#1565c0"/>
<circle cx="594.3" cy="566.4" r="4" fill="#ef6c00"/>
<text x="260" y="604.7" text-anchor="end" font-size="11">varying 131301 1.4-&gt;2.3</text>
<circle cx="270.2" cy="600.7" r="4" fill="#202020"/>
<circle cx="270.2" cy="600.7" r="4" fill="#1565c0"/>
<circle cx="270.2" cy="600.7" r="4" fill="#ef6c00"/>
<text x="260" y="638.9" text-anchor="end" font-size="11">varying 131301 2.3-&gt;2.8</text>
<circle cx="270.2" cy="634.9" r="4" fill="#202020"/>
<circle cx="270.2" cy="634.9" r="4" fill="#1565c0"/>
<circle cx="270.2" cy="634.9" r="4" fill="#ef6c00"/>
<circle cx="840" cy="18" r="4" fill="#202020"/>
<text x="848" y="22" font-size="11">measured > shaped</text>
<circle cx="955" cy="18" r="4" fill="#1565c0"/>
<text x="963" y="22" font-size="11">overspeed branch</text>
<circle cx="1070" cy="18" r="4" fill="#ef6c00"/>
<text x="1078" y="22" font-size="11">applied < shaped</text>
<circle cx="840" cy="36" r="4" fill="#2e7d32"/>
<text x="848" y="40" font-size="11">gap >= .05</text>
<circle cx="955" cy="36" r="4" fill="#9c27b0"/>
<text x="963" y="40" font-size="11">gap >= .10</text>
<circle cx="1070" cy="36" r="4" fill="#b71c1c"/>
<text x="1078" y="40" font-size="11">gap >= .20</text>
</svg>